<?xml version="1.0" standalone="no"?>
<!DOCTYPE svg PUBLIC "-//W3C//DTD SVG 20010904//EN"
 "http://www.w3.org/TR/2001/REC-SVG-20010904/DTD/svg10.dtd">
<svg version="1.0" xmlns="http://www.w3.org/2000/svg"
 width="95.000000pt" height="27.000000pt" viewBox="0 0 95.000000 27.000000"
 preserveAspectRatio="xMidYMid meet">
<metadata>
Created by potrace 1.16, written by Peter Selinger 2001-2019
</metadata>
<g transform="translate(0.000000,27.000000) scale(0.007342,-0.005987)"
fill="#000000" stroke="none">
<path d="M695 4369 c-372 -36 -525 -180 -565 -534 -14 -127 -14 -3009 1 -3130
12 -103 56 -244 95 -307 89 -144 229 -228 439 -262 92 -15 558 -16 5845 -14
5316 3 5750 5 5811 20 284 72 427 226 480 518 20 107 21 3059 1 3165 -63 343
-246 506 -612 545 -119 12 -11364 11 -11495 -1z m2085 -720 c0 -245 -177 -487
-409 -559 -35 -11 -83 -20 -107 -20 l-44 0 0 74 c0 232 184 470 429 553 36 12
81 23 99 23 l32 0 0 -71z m3135 -529 l0 -365 -65 0 -65 0 -3 355 c-1 195 0
361 3 368 3 9 23 12 67 10 l63 -3 0 -365z m525 225 c0 -90 4 -145 10 -145 6 0
10 4 10 8 0 5 19 19 43 32 85 49 202 25 258 -53 39 -54 52 -106 47 -197 -4
-89 -34 -157 -88 -201 -74 -60 -192 -63 -254 -8 -19 16 -36 29 -40 29 -3 0 -6
-13 -6 -30 0 -30 -1 -30 -55 -30 l-55 0 0 363 c0 200 3 367 7 370 3 4 33 7 65
7 l58 0 0 -145z m605 -225 l0 -365 -65 0 -65 0 -3 355 c-1 195 0 361 3 368 3
9 23 12 67 10 l63 -3 0 -365z m2745 219 l0 -151 35 31 c88 77 214 58 267 -41
21 -40 23 -57 26 -235 l4 -193 -66 0 -66 0 0 160 c0 171 -10 218 -48 239 -56
30 -124 -3 -142 -67 -5 -20 -10 -103 -10 -184 l0 -148 -65 0 -65 0 0 363 c0
200 3 367 7 370 3 4 33 7 65 7 l58 0 0 -151z m-3627 109 c27 -21 32 -70 9 -98
-45 -56 -141 -15 -128 55 8 37 30 55 71 55 17 0 39 -6 48 -12z m-1593 -336
c60 -186 110 -344 110 -351 0 -8 -19 -11 -67 -9 l-67 3 -30 95 -31 95 -109 0
c-108 0 -109 0 -117 -25 -4 -14 -18 -58 -29 -97 l-22 -73 -64 0 c-38 0 -64 4
-64 11 0 11 209 668 217 682 2 4 40 7 83 7 l79 0 111 -338z m4880 218 l0 -70
60 0 60 0 0 -50 0 -50 -60 0 -60 0 0 -127 c0 -160 7 -177 73 -181 l47 -3 0
-49 0 -49 -46 -7 c-89 -13 -150 10 -181 69 -13 25 -18 66 -21 190 l-4 157 -35
0 -34 0 3 48 c3 45 4 47 36 50 31 3 32 4 32 52 0 27 5 52 11 56 10 6 93 31
112 33 4 1 7 -30 7 -69z m-3892 -87 c81 -42 102 -112 102 -339 l0 -155 -57 3
c-50 3 -58 6 -63 26 l-5 22 -39 -27 c-33 -24 -48 -28 -105 -28 -58 0 -73 4
-103 27 -21 16 -42 43 -48 64 -16 47 -8 119 17 153 30 41 122 82 198 89 60 4
65 7 65 28 0 13 -10 32 -22 44 -27 25 -111 27 -165 5 -42 -18 -52 -12 -59 37
-6 31 -3 36 22 46 88 36 198 38 262 5z m1899 15 c91 -22 153 -120 153 -240 l0
-48 -170 0 c-110 0 -170 -4 -170 -10 0 -6 7 -26 15 -46 21 -52 87 -79 174 -71
36 4 75 9 87 13 19 5 22 0 28 -37 8 -49 3 -54 -67 -69 -119 -25 -225 -2 -291
63 -48 49 -66 99 -66 185 0 185 139 303 307 260z m771 -3 c101 -30 161 -111
170 -226 9 -129 -49 -229 -156 -270 -100 -37 -217 -13 -283 58 -51 54 -64 91
-64 183 0 137 49 210 168 251 64 23 99 23 165 4z m601 5 c19 -5 50 -24 68 -42
52 -50 63 -104 63 -300 l0 -168 -65 0 -65 0 0 153 c0 166 -9 218 -43 242 -28
19 -76 19 -105 -1 -45 -31 -52 -62 -52 -234 l0 -160 -65 0 -65 0 0 255 0 255
54 0 54 0 7 -36 6 -36 29 27 c28 27 89 54 125 55 11 0 36 -4 54 -10z m1707 -5
c89 -26 143 -111 144 -222 l0 -63 -165 0 -165 0 0 -24 c0 -34 44 -82 87 -97
35 -11 129 -8 180 7 19 5 23 1 28 -30 10 -53 3 -62 -61 -74 -229 -46 -376 63
-362 267 9 119 71 205 170 236 57 18 84 18 144 0z m-5656 -157 c28 -90 54
-174 59 -187 6 -22 8 -20 20 20 7 24 33 108 57 187 l45 142 65 0 c45 0 64 -4
64 -12 -1 -7 -42 -121 -93 -253 l-92 -240 -65 0 -65 0 -87 235 c-48 129 -90
243 -94 253 -5 15 2 17 65 17 l70 0 51 -162z m1300 -93 l0 -255 -65 0 -65 0 0
255 0 255 65 0 65 0 0 -255z m-4276 70 c38 -8 124 -33 190 -56 107 -37 132
-42 211 -42 83 -1 102 4 240 51 115 39 170 53 235 58 150 11 302 -38 436 -139
61 -46 134 -120 134 -135 0 -4 -13 -15 -29 -25 -121 -71 -219 -204 -256 -348
-24 -89 -16 -259 15 -348 49 -137 167 -272 295 -335 30 -14 55 -31 55 -36 0
-25 -116 -239 -189 -347 -176 -264 -336 -384 -490 -370 -34 3 -104 24 -176 53
-113 45 -127 48 -229 52 -131 5 -182 -5 -314 -61 -88 -38 -105 -42 -182 -42
-77 0 -92 3 -154 34 -209 103 -464 499 -556 866 -93 366 -46 697 130 912 131
161 337 270 515 272 28 0 81 -6 119 -14z m6329 -646 c85 -13 177 -46 177 -62
-1 -27 -47 -162 -56 -162 -5 1 -43 12 -84 25 -147 47 -295 28 -359 -45 -84
-97 -37 -218 113 -289 39 -19 114 -55 167 -80 112 -52 198 -125 234 -196 74
-145 40 -340 -76 -444 -96 -87 -205 -121 -379 -120 -129 0 -196 12 -283 51
-66 30 -64 18 -26 145 l20 67 61 -29 c85 -40 155 -53 268 -48 81 3 102 8 140
30 61 35 90 88 90 164 0 100 -40 148 -177 210 -267 122 -321 161 -375 272 -29
59 -33 76 -33 147 1 66 6 91 29 142 80 176 293 262 549 222z m-3335 -667 c117
-361 213 -663 212 -670 0 -10 -26 -12 -112 -10 l-112 3 -62 190 -61 190 -219
3 -219 2 -49 -162 c-27 -90 -55 -178 -62 -195 l-13 -33 -105 0 c-58 0 -107 3
-109 8 -2 4 64 216 147 472 83 256 180 554 215 663 l63 197 137 0 136 0 213
-658z m3982 403 l0 -115 110 0 110 0 0 -90 0 -90 -110 0 -110 0 0 -265 c0
-218 3 -272 16 -304 21 -54 66 -75 138 -66 l54 7 4 -78 c3 -44 2 -82 -2 -86
-12 -15 -126 -30 -187 -25 -114 11 -182 56 -225 151 -22 49 -23 62 -26 359
l-3 307 -70 0 -69 0 0 90 0 90 70 0 70 0 0 85 0 84 73 21 c39 12 83 25 97 30
60 20 60 20 60 -105z m2554 -126 c109 -41 180 -118 223 -240 26 -75 40 -211
29 -273 l-7 -36 -321 0 -321 0 6 -45 c14 -97 87 -182 181 -210 64 -19 183 -19
271 1 114 26 108 28 124 -49 12 -59 12 -70 0 -78 -51 -32 -268 -65 -358 -54
-136 16 -216 50 -296 126 -97 91 -136 198 -137 369 0 171 52 301 163 405 113
105 295 140 443 84z m-5548 4 c132 -44 228 -155 268 -310 20 -78 21 -247 1
-332 -61 -255 -290 -401 -528 -334 -44 12 -73 29 -113 66 l-54 49 0 -256 0
-256 -105 0 -105 0 0 548 c0 301 -3 611 -7 690 l-6 142 95 0 95 0 7 -37 c3
-21 6 -58 6 -82 l0 -43 46 51 c73 81 161 119 280 120 41 1 91 -6 120 -16z
m1106 -16 c145 -71 231 -219 244 -416 22 -335 -182 -579 -465 -559 -81 6 -157
38 -202 84 l-34 35 -5 -248 -5 -248 -107 -3 -108 -3 0 614 c0 338 -3 649 -6
691 l-7 77 99 -3 99 -3 3 -60 c1 -33 4 -66 7 -72 3 -8 24 7 53 36 85 85 157
112 293 108 70 -3 96 -8 141 -30z m2836 5 c115 -45 209 -143 254 -267 16 -45
23 -89 26 -175 6 -180 -31 -292 -134 -400 -64 -67 -127 -104 -215 -125 -281
-66 -526 85 -584 360 -19 89 -19 161 0 249 39 185 148 313 313 367 79 26 263
22 340 -9z m932 -78 l0 -106 -34 6 c-93 18 -194 -41 -237 -136 -22 -51 -23
-65 -27 -345 l-4 -293 -104 0 -104 0 0 363 c0 200 -3 419 -7 485 l-6 122 95 0
96 0 7 -97 7 -98 24 46 c48 96 144 159 242 159 l52 0 0 -106z"/>
<path d="M6482 3131 c-32 -33 -42 -67 -42 -145 0 -100 70 -161 154 -134 33 11
45 21 64 58 41 82 18 210 -44 238 -47 22 -100 15 -132 -17z"/>
<path d="M4338 3207 c-20 -67 -39 -130 -43 -139 -6 -16 1 -18 80 -18 77 0 86
2 81 17 -4 9 -23 71 -43 137 -20 67 -36 122 -37 123 -1 1 -18 -53 -38 -120z"/>
<path d="M5451 2989 c-56 -11 -91 -43 -91 -83 0 -40 9 -52 44 -66 23 -8 36 -7
65 7 43 22 61 53 61 111 0 47 0 47 -79 31z"/>
<path d="M7343 3165 c-32 -14 -56 -42 -68 -82 -6 -23 -6 -23 105 -23 l112 0
-7 28 c-10 40 -33 72 -61 82 -33 13 -42 12 -81 -5z"/>
<path d="M8086 3149 c-74 -58 -83 -208 -16 -279 23 -25 36 -30 75 -30 39 0 52
5 75 30 71 76 55 252 -26 288 -38 18 -78 14 -108 -9z"/>
<path d="M10413 3166 c-31 -14 -63 -60 -63 -91 0 -13 17 -15 106 -15 l107 0
-7 33 c-13 66 -81 101 -143 73z"/>
<path d="M4536 2210 c-3 -8 -17 -62 -31 -120 -15 -58 -51 -183 -81 -278 -30
-95 -54 -177 -54 -182 0 -6 71 -10 176 -10 l175 0 -6 23 c-4 12 -31 99 -61
192 -29 94 -67 220 -83 280 -16 61 -31 103 -35 95z"/>
<path d="M11168 1881 c-66 -42 -127 -140 -128 -203 l0 -28 220 0 220 0 0 28
c0 45 -26 120 -55 158 -59 78 -173 98 -257 45z"/>
<path d="M5625 1876 c-55 -21 -128 -101 -146 -162 -9 -32 -14 -95 -13 -179 0
-115 3 -137 23 -178 80 -165 314 -180 405 -25 83 141 69 383 -27 486 -55 59
-166 85 -242 58z"/>
<path d="M6698 1876 c-75 -27 -127 -79 -154 -153 -19 -56 -19 -302 1 -350 42
-99 111 -147 215 -147 105 0 175 49 223 154 18 38 21 65 22 175 0 116 -3 136
-24 182 -54 121 -172 178 -283 139z"/>
<path d="M9545 1881 c-53 -25 -88 -64 -122 -136 -22 -49 -28 -78 -31 -159 -5
-123 9 -189 54 -258 47 -71 91 -100 159 -106 82 -7 122 5 169 48 169 156 140
524 -47 614 -46 21 -132 20 -182 -3z"/>
</g>
</svg>
