<?xml version="1.0" standalone="no"?>
<!DOCTYPE svg PUBLIC "-//W3C//DTD SVG 20010904//EN"
 "http://www.w3.org/TR/2001/REC-SVG-20010904/DTD/svg10.dtd">
<svg version="1.0" xmlns="http://www.w3.org/2000/svg"
 width="95.000000pt" height="27.000000pt" viewBox="0 0 95.000000 27.000000"
 preserveAspectRatio="xMidYMid meet">
<metadata>
Created by potrace 1.16, written by Peter Selinger 2001-2019
</metadata>
<g transform="translate(0.000000,27.000000) scale(0.007342,-0.005987)"
fill="#000000" stroke="none">
<path d="M695 4369 c-372 -36 -525 -180 -565 -534 -14 -127 -14 -3009 1 -3130
12 -103 56 -244 95 -307 89 -144 229 -228 439 -262 92 -15 558 -16 5845 -14
5316 3 5750 5 5811 20 284 72 427 226 480 518 20 107 21 3059 1 3165 -63 343
-246 506 -612 545 -119 12 -11364 11 -11495 -1z m1744 -2137 c7 -4 -1262
-1272 -1271 -1272 -10 0 -11 2491 -2 2515 5 13 158 -134 638 -612 347 -345
633 -629 635 -631z m-354 824 c407 -235 741 -430 743 -434 1 -4 -69 -78 -155
-164 l-158 -156 -600 596 c-330 327 -593 593 -585 590 8 -4 348 -198 755 -432z
m2040 313 c62 -11 114 -34 154 -69 l25 -21 -41 -40 -40 -41 -37 26 c-103 70
-249 34 -303 -74 -44 -85 -23 -205 45 -262 69 -58 190 -65 256 -14 34 25 66
72 66 96 0 6 -35 10 -95 10 l-95 0 0 50 0 50 155 0 155 0 1 -27 c9 -170 -70
-281 -226 -320 -117 -29 -236 6 -321 93 -61 64 -87 137 -82 239 7 175 127 295
314 314 6 1 37 -4 69 -10z m2890 -23 c72 -32 119 -78 154 -147 77 -155 30
-334 -112 -425 -158 -101 -382 -42 -466 124 -78 153 -16 360 131 438 87 47
203 50 293 10z m-2145 -41 l0 -55 -140 0 -140 0 0 -70 0 -69 123 -3 122 -3 3
-57 3 -58 -126 0 -125 0 0 -70 0 -70 140 0 140 0 0 -55 0 -55 -200 0 -200 0 0
310 0 310 200 0 200 0 0 -55z m530 0 l0 -55 -90 0 -90 0 0 -255 0 -255 -60 0
-60 0 0 255 0 255 -85 0 -85 0 0 55 0 55 235 0 235 0 0 -55z m390 -255 l0
-310 -65 0 -65 0 0 310 0 310 65 0 65 0 0 -310z m540 255 l0 -55 -85 0 -85 0
0 -255 0 -255 -60 0 -60 0 0 255 0 255 -90 0 -90 0 0 55 0 55 235 0 235 0 0
-55z m1221 -132 c62 -104 118 -196 124 -205 9 -14 11 28 7 187 l-5 205 62 0
61 0 0 -310 0 -310 -63 0 -62 0 -129 215 c-71 118 -129 215 -130 215 -1 0 0
-97 2 -215 l4 -215 -61 0 -61 0 0 310 0 310 69 0 70 0 112 -187z m-4369 -748
c139 -80 261 -155 271 -166 23 -29 21 -63 -5 -92 -13 -14 -131 -86 -262 -161
l-240 -137 -180 180 -181 181 170 170 c93 93 171 170 172 170 1 0 116 -65 255
-145z m1378 -57 c77 -23 170 -73 223 -120 l38 -33 -64 -63 -64 -64 -50 36
c-231 166 -548 95 -676 -152 -180 -346 91 -739 471 -683 104 15 187 57 251
126 50 55 91 141 91 190 l0 25 -210 0 -210 0 0 90 0 90 308 -2 307 -3 3 -98
c5 -171 -42 -298 -154 -416 -80 -86 -141 -126 -242 -158 -65 -22 -96 -26 -197
-26 -103 0 -131 3 -200 26 -115 38 -196 90 -284 183 -246 259 -240 625 14 880
44 44 105 94 135 111 158 89 345 111 510 61z m3400 -623 l0 -615 -95 0 -95 0
0 608 c0 335 3 612 7 615 3 4 46 7 95 7 l88 0 0 -615z m1831 587 c130 -52 212
-138 244 -257 46 -167 -21 -335 -166 -422 -83 -50 -152 -63 -321 -63 l-148 0
-2 -227 -3 -228 -92 -3 -93 -3 0 616 0 617 263 -4 c242 -4 266 -6 318 -26z
m539 -587 l0 -616 -92 3 -93 3 -3 600 c-1 330 0 606 3 613 3 8 32 12 95 12
l90 0 0 -615z m-7482 73 c-3 -8 -1541 -896 -1568 -905 -8 -3 266 276 610 621
l625 626 167 -167 c93 -93 167 -171 166 -175z m4532 101 c27 -12 56 -29 66
-40 24 -27 34 -24 34 11 l0 30 90 0 90 0 0 -402 c0 -435 -5 -490 -53 -585 -34
-67 -110 -135 -183 -163 -83 -33 -224 -34 -307 -1 -94 37 -242 191 -211 220 5
5 39 23 76 39 l67 30 26 -44 c45 -77 151 -119 241 -95 102 27 152 95 161 217
l6 76 -46 -35 c-62 -47 -108 -62 -192 -61 -164 2 -309 109 -367 272 -28 77
-27 196 0 274 78 219 312 339 502 257z m3556 0 c104 -39 174 -110 214 -215 18
-50 20 -78 20 -315 l0 -260 -87 3 -88 3 -3 47 -3 48 -36 -36 c-55 -55 -114
-78 -203 -78 -171 0 -300 115 -300 268 1 122 72 210 207 255 80 27 197 28 271
2 48 -17 52 -17 52 -1 0 9 -10 32 -23 51 -71 105 -232 117 -312 23 l-21 -24
-79 32 c-44 17 -82 33 -85 35 -10 9 37 78 75 108 99 82 266 104 401 54z
m-5406 11 c67 -13 150 -50 196 -89 157 -128 191 -395 74 -566 -190 -275 -617
-227 -742 85 -18 44 -23 75 -23 160 0 98 2 110 32 172 59 124 158 205 286 233
77 17 110 18 177 5z m921 -4 c87 -19 141 -47 204 -107 170 -161 165 -463 -11
-618 -211 -185 -538 -123 -661 127 -37 74 -38 79 -38 186 1 137 22 199 97 281
62 68 122 104 208 127 80 21 117 22 201 4z m2134 -17 c78 -29 153 -106 200
-204 21 -42 34 -79 31 -82 -3 -4 -126 -57 -273 -119 -147 -61 -269 -117 -271
-123 -2 -5 17 -30 41 -55 36 -36 55 -46 101 -56 86 -18 147 0 211 61 l49 47
68 -46 c37 -26 68 -51 68 -55 0 -5 -25 -33 -55 -63 -181 -182 -484 -153 -625
58 -52 78 -73 151 -72 253 3 295 261 483 527 384z m2880 -254 c60 -146 111
-262 114 -259 3 3 51 121 106 262 l100 257 98 3 c53 1 97 -1 97 -5 0 -4 -111
-266 -247 -580 l-248 -573 -92 0 c-51 0 -93 2 -93 5 0 3 41 95 90 205 50 110
90 202 90 204 0 2 -70 165 -156 363 -86 197 -158 364 -161 371 -4 9 19 12 95
12 l100 0 107 -265z"/>
<path d="M6800 3244 c-78 -34 -120 -101 -120 -194 0 -125 83 -210 206 -210
130 0 222 124 193 261 -26 121 -165 192 -279 143z"/>
<path d="M9400 1981 l0 -211 149 0 c143 0 151 1 202 28 76 39 114 102 114 188
0 53 -4 68 -30 106 -17 23 -51 54 -75 68 -42 23 -57 25 -202 28 l-158 4 0
-211z"/>
<path d="M7212 1771 c-200 -50 -239 -354 -59 -465 40 -25 59 -30 112 -30 86 0
145 36 189 114 27 49 31 64 31 135 0 71 -4 86 -31 135 -50 88 -149 134 -242
111z"/>
<path d="M10694 1481 c-23 -10 -49 -29 -58 -42 -19 -27 -21 -87 -3 -110 46
-59 151 -72 228 -27 50 30 95 87 105 134 6 30 4 32 -42 48 -65 22 -178 21
-230 -3z"/>
<path d="M5405 1771 c-112 -29 -184 -126 -185 -246 0 -160 137 -279 282 -244
70 16 148 92 167 162 21 73 10 168 -26 225 -49 79 -154 125 -238 103z"/>
<path d="M6289 1765 c-25 -8 -63 -31 -83 -51 -55 -53 -76 -105 -76 -189 0 -84
21 -136 76 -189 110 -107 284 -71 360 74 26 50 26 181 0 233 -52 106 -168 156
-277 122z"/>
<path d="M8398 1766 c-21 -8 -49 -21 -63 -30 -36 -24 -83 -92 -91 -131 -13
-69 -12 -69 176 11 110 46 174 78 172 86 -5 23 -54 56 -98 67 -52 13 -50 13
-96 -3z"/>
</g>
</svg>
