<?xml version="1.0" standalone="no"?>
<!DOCTYPE svg PUBLIC "-//W3C//DTD SVG 20010904//EN"
 "http://www.w3.org/TR/2001/REC-SVG-20010904/DTD/svg10.dtd">
<svg version="1.0" xmlns="http://www.w3.org/2000/svg"
 width="95.000000pt" height="27.000000pt" viewBox="0 0 95.000000 27.000000"
 preserveAspectRatio="xMidYMid meet">
<metadata>
Created by potrace 1.16, written by Peter Selinger 2001-2019
</metadata>
<g transform="translate(0.000000,27.000000) scale(0.007342,-0.005987)"
fill="#000000" stroke="none">
<path d="M695 4369 c-372 -36 -525 -180 -565 -534 -14 -127 -14 -3009 1 -3130
12 -103 56 -244 95 -307 89 -144 229 -228 439 -262 92 -15 558 -16 5845 -14
5316 3 5750 5 5811 20 284 72 427 226 480 518 20 107 21 3059 1 3165 -63 343
-246 506 -612 545 -119 12 -11364 11 -11495 -1z m1525 -685 c22 -9 56 -34 74
-55 53 -62 67 -127 73 -341 l6 -187 -29 -6 c-16 -4 -34 -8 -41 -10 -8 -3 -12
51 -15 198 -3 194 -4 204 -28 247 -38 69 -92 93 -195 87 -100 -6 -230 -47
-287 -90 -24 -18 -54 -53 -68 -77 -24 -44 -25 -52 -28 -267 -3 -217 -4 -221
-25 -227 -63 -17 -60 -29 -55 222 4 186 8 237 23 280 24 70 91 144 158 175 47
23 188 60 262 71 48 7 132 -3 175 -20z m392 -201 c15 -7 34 -26 42 -41 20 -39
36 -134 36 -214 0 -58 -3 -68 -17 -68 -10 0 -28 -3 -40 -6 -21 -6 -21 -3 -25
105 -3 105 -4 112 -30 137 -23 24 -35 27 -86 27 -63 -1 -71 6 -72 59 0 29 135
30 192 1z m-394 -80 c3 -28 -1 -34 -48 -59 -70 -38 -88 -75 -96 -201 -7 -101
-13 -113 -51 -113 -22 0 -23 3 -23 90 0 170 36 250 133 296 65 30 81 28 85
-13z m6935 -73 c14 0 17 -9 17 -48 l0 -47 -44 3 c-63 5 -86 -20 -86 -93 l0
-55 55 0 55 0 0 -45 0 -45 -55 0 -55 0 0 -200 0 -200 -55 0 -55 0 0 199 0 200
-42 3 c-43 3 -43 3 -46 46 l-3 42 45 0 46 0 0 65 c0 75 16 114 59 144 33 24
96 41 126 35 11 -2 28 -4 38 -4z m-2313 -370 l0 -360 -55 0 -55 0 0 360 0 360
55 0 55 0 0 -360z m1650 0 l0 -360 -55 0 -55 0 0 39 0 39 -33 -33 c-41 -41
-100 -60 -160 -51 -65 10 -107 42 -140 106 -27 51 -28 61 -25 150 6 133 42
197 130 235 74 30 178 12 213 -39 14 -18 15 -5 15 127 l0 147 55 0 55 0 0
-360z m-3936 300 c133 -42 200 -147 199 -310 -1 -99 -30 -174 -89 -235 -81
-84 -182 -115 -376 -115 l-108 0 0 346 0 347 153 -6 c117 -4 168 -10 221 -27z
m-1294 -189 l185 -69 3 -975 2 -975 -162 -60 c-90 -32 -180 -65 -201 -73 -36
-13 -89 -3 -1025 185 -543 109 -990 200 -995 203 -6 4 -11 1442 -4 1443 1 1
445 90 987 200 542 109 994 197 1005 195 11 -2 103 -35 205 -74z m1921 17 c53
-17 87 -45 116 -95 35 -60 43 -167 19 -241 -73 -220 -417 -211 -477 12 -25 91
4 219 63 273 60 57 192 81 279 51z m1335 -4 c18 -9 44 -33 56 -53 22 -34 23
-49 26 -233 l4 -198 -56 0 -56 0 0 153 c0 166 -9 218 -43 242 -52 36 -132 6
-157 -60 -6 -15 -10 -96 -10 -181 l0 -154 -55 0 -55 0 0 245 0 245 55 0 55 0
0 -37 c0 -38 1 -38 18 -16 48 59 146 81 218 47z m788 4 c115 -35 175 -187 131
-335 -19 -65 -93 -135 -159 -152 -124 -31 -247 15 -299 112 -18 35 -22 58 -22
132 0 128 35 189 135 234 52 24 150 28 214 9z m532 -9 c31 -15 48 -32 63 -63
19 -38 21 -61 21 -229 l0 -187 -55 0 -55 0 0 37 0 37 -16 -23 c-21 -29 -89
-60 -132 -61 -43 0 -91 21 -121 54 -35 37 -41 127 -12 173 29 47 60 63 153 79
46 9 93 18 106 20 29 6 29 35 -2 71 -21 24 -31 28 -78 28 -39 -1 -67 -8 -101
-28 l-48 -26 3 52 3 52 50 17 c71 24 168 23 221 -3z m1672 -36 l3 -53 -43 6
c-35 5 -48 2 -72 -17 -47 -37 -56 -73 -56 -234 l0 -146 -57 3 -58 3 -3 243 -2
242 60 0 60 0 0 -37 0 -38 26 33 c32 40 57 52 104 49 35 -2 35 -2 38 -54z
m383 46 c91 -31 139 -102 147 -215 9 -134 -53 -237 -161 -269 -191 -57 -348
64 -335 258 7 110 62 189 155 223 47 16 149 18 194 3z m629 -36 l38 -40 26 33
c50 63 179 74 236 19 48 -46 55 -82 55 -280 l0 -180 -57 -3 -58 -3 0 164 c0
170 -9 220 -40 237 -27 14 -72 12 -96 -5 -45 -31 -54 -72 -54 -240 l0 -156
-57 3 -58 3 -6 180 c-3 99 -6 181 -7 182 -43 48 -93 56 -135 23 -38 -30 -47
-77 -47 -242 l0 -148 -55 0 -55 0 0 245 0 245 55 0 55 0 0 -36 0 -37 22 28
c32 40 74 56 142 52 54 -3 62 -7 96 -44z m-4980 -152 l46 -184 43 154 c24 85
48 169 53 187 9 31 11 32 62 32 l54 0 42 -172 c24 -95 46 -176 49 -180 4 -4
27 73 51 172 l44 180 54 0 c46 0 53 -2 48 -17 -3 -10 -35 -120 -72 -245 l-67
-228 -58 0 -58 0 -11 43 c-36 137 -81 302 -84 304 -1 2 -25 -75 -53 -169 l-50
-173 -58 0 -58 0 -68 230 c-38 127 -68 236 -69 243 0 10 15 12 57 10 l57 -3
46 -184z m1470 -1226 l0 -476 -72 3 -73 3 -3 45 -3 46 -42 -41 c-124 -118
-327 -73 -398 88 -34 78 -38 213 -10 307 38 123 146 210 261 210 50 0 123 -29
156 -61 l34 -33 0 192 0 192 75 0 75 0 0 -475z m-1481 439 c42 -35 42 -75 1
-116 -27 -26 -36 -30 -67 -25 -77 13 -106 95 -49 143 36 31 77 30 115 -2z
m4134 -22 c26 -11 27 -14 27 -85 l0 -74 -42 21 c-64 32 -210 36 -266 7 -49
-25 -62 -46 -62 -99 0 -52 38 -86 166 -148 160 -78 243 -172 244 -275 0 -101
-43 -167 -139 -213 -63 -29 -72 -31 -186 -31 -89 0 -136 5 -182 19 l-63 19 0
78 0 78 61 -32 c51 -26 74 -32 148 -35 140 -7 201 26 201 109 0 57 -36 91
-169 159 -135 69 -191 113 -220 173 -25 51 -28 141 -7 190 23 54 88 108 163
134 60 21 82 23 183 20 63 -2 127 -9 143 -15z m-5384 -14 c4 -13 44 -170 87
-350 43 -180 81 -328 84 -328 3 0 43 136 89 303 46 166 90 324 98 350 l14 48
76 -3 77 -3 90 -352 c50 -194 92 -349 94 -345 1 4 40 163 86 352 l83 345 77 3
c43 2 76 -1 76 -7 0 -5 -49 -188 -109 -408 -60 -219 -114 -417 -121 -440 l-11
-43 -84 0 -83 0 -14 48 c-8 26 -50 178 -93 339 l-79 292 -91 -337 -92 -337
-86 -3 -86 -3 -11 38 c-75 256 -236 850 -233 856 2 4 38 7 79 7 68 0 75 -2 83
-22z m5721 -143 l0 -95 80 0 80 0 0 -55 0 -55 -81 0 -81 0 4 -191 c3 -190 3
-191 28 -211 20 -17 34 -19 78 -15 l52 6 0 -54 c0 -51 -1 -54 -31 -64 -54 -19
-140 -14 -189 12 -75 37 -80 57 -80 305 l0 212 -55 0 -55 0 0 55 0 55 55 0 55
0 0 75 0 74 63 20 c34 10 65 20 70 20 4 1 7 -42 7 -94z m-3834 -101 c94 -45
115 -125 112 -415 l-3 -214 -72 -3 -73 -3 0 207 c0 220 -7 269 -46 305 -53 50
-158 28 -199 -42 -18 -30 -21 -57 -25 -249 l-5 -215 -72 -3 -73 -3 0 321 0
320 75 0 75 0 0 -46 0 -47 20 26 c25 31 82 67 124 78 43 11 119 3 162 -17z
m1454 -5 c58 -25 113 -82 143 -148 32 -70 31 -235 -2 -309 -34 -74 -111 -143
-189 -166 -80 -25 -199 -19 -264 12 -154 75 -216 263 -147 449 21 55 79 122
128 148 95 49 236 55 331 14z m3069 0 c68 -29 136 -104 156 -172 8 -28 15 -88
15 -133 0 -145 -56 -246 -168 -301 -51 -25 -68 -28 -157 -28 -83 0 -109 4
-152 24 -68 30 -125 92 -153 167 -29 79 -25 212 9 291 26 59 93 127 148 150
93 38 216 39 302 2z m1090 15 c114 -34 181 -137 184 -284 l2 -75 -216 -3 -217
-2 9 -41 c21 -94 78 -134 189 -133 71 0 94 7 183 52 4 2 7 -23 7 -56 l0 -60
-52 -22 c-79 -34 -223 -39 -299 -11 -121 46 -182 149 -182 306 1 136 39 220
130 286 79 56 168 71 262 43z m-421 -72 c3 -70 2 -73 -17 -63 -31 17 -91 13
-127 -9 -19 -12 -42 -41 -55 -68 -21 -43 -24 -64 -27 -239 l-4 -193 -69 0 -69
0 0 320 0 320 70 0 70 0 0 -62 1 -63 16 30 c39 74 88 106 158 103 l50 -3 3
-73z m-5810 -249 l-3 -318 -72 -3 -73 -3 0 321 0 320 75 0 75 0 -2 -317z
m2497 73 c33 -134 63 -239 66 -232 3 6 35 116 70 243 l64 233 70 0 71 0 59
-244 c33 -134 62 -243 63 -241 2 2 26 95 53 207 27 112 54 220 60 241 l10 37
69 0 c39 0 70 -1 70 -2 0 -2 -42 -145 -94 -318 l-93 -315 -76 -3 -75 -3 -15
53 c-9 29 -37 135 -64 236 l-49 183 -58 -203 c-32 -111 -63 -217 -68 -235 l-9
-33 -74 0 -74 0 -25 83 c-14 45 -55 183 -91 307 -36 124 -68 231 -70 238 -3 9
16 12 73 12 l78 0 59 -244z"/>
<path d="M8202 2996 c-79 -43 -95 -211 -26 -279 55 -55 148 -39 186 33 23 44
25 158 3 200 -28 53 -109 76 -163 46z"/>
<path d="M4300 2946 l0 -246 58 0 c182 1 272 84 272 249 -1 159 -67 224 -244
237 l-86 7 0 -247z"/>
<path d="M2255 2530 c-137 -22 -253 -39 -257 -39 -5 -1 -8 -91 -8 -201 l0
-200 275 0 275 0 0 240 c0 222 -1 240 -17 239 -10 -1 -130 -18 -268 -39z"/>
<path d="M1710 2456 l-215 -31 -3 -168 -2 -167 220 0 220 0 0 200 c0 110 -1
199 -2 199 -2 -1 -100 -15 -218 -33z"/>
<path d="M1490 1850 c0 -99 2 -180 4 -180 2 0 97 -13 211 -30 114 -16 211 -30
216 -30 5 0 9 95 9 210 l0 210 -220 0 -220 0 0 -180z"/>
<path d="M1990 1816 l0 -213 53 -7 c28 -3 152 -21 275 -39 l222 -33 0 253 0
253 -275 0 -275 0 0 -214z"/>
<path d="M5013 2990 c-46 -27 -63 -67 -63 -146 0 -49 5 -75 20 -99 21 -34 73
-65 109 -65 40 0 90 28 111 62 25 41 28 154 5 202 -30 63 -118 86 -182 46z"/>
<path d="M7140 2997 c-48 -24 -70 -73 -70 -152 0 -90 24 -132 88 -155 37 -13
47 -13 84 0 63 22 88 65 88 152 0 76 -15 114 -56 147 -31 24 -95 28 -134 8z"/>
<path d="M7720 2829 c-75 -13 -100 -31 -100 -74 0 -47 29 -75 78 -75 65 0 112
52 112 125 0 39 1 39 -90 24z"/>
<path d="M9723 2990 c-45 -27 -63 -68 -63 -142 0 -77 22 -124 71 -150 41 -22
68 -23 114 -4 52 22 75 67 75 149 0 81 -20 131 -61 152 -39 21 -98 19 -136 -5z"/>
<path d="M6644 1726 c-70 -31 -111 -127 -102 -241 10 -114 67 -175 164 -175
46 0 58 5 90 32 53 46 64 81 64 196 0 86 -3 103 -22 132 -43 63 -124 86 -194
56z"/>
<path d="M7406 1730 c-74 -23 -118 -100 -118 -211 0 -137 60 -209 175 -209
107 0 162 58 174 183 16 173 -88 279 -231 237z"/>
<path d="M10463 1721 c-65 -30 -95 -84 -101 -181 -4 -71 -2 -86 21 -133 34
-68 81 -97 159 -97 108 0 168 75 168 210 0 104 -30 169 -92 199 -54 26 -100
26 -155 2z"/>
<path d="M11635 1736 c-37 -17 -70 -52 -84 -89 -22 -57 -23 -57 129 -57 l140
0 0 25 c0 39 -26 92 -54 110 -35 23 -95 28 -131 11z"/>
</g>
</svg>
